<svg width="27" height="27" viewBox="0 0 27 27" fill="none" xmlns="http://www.w3.org/2000/svg">
<path d="M8.2825 13.5771C9.38431 15.8305 11.2105 17.6488 13.4686 18.7409C13.6339 18.8192 13.8168 18.853 13.9992 18.8391C14.1817 18.8251 14.3573 18.7638 14.5088 18.6612L17.8344 16.4448C17.9813 16.3467 18.1503 16.2868 18.3262 16.2705C18.502 16.2542 18.6792 16.282 18.8416 16.3513L25.0626 19.0182C25.2739 19.108 25.4503 19.2639 25.5653 19.4627C25.6802 19.6614 25.7275 19.8921 25.7001 20.12C25.5031 21.6585 24.7523 23.0724 23.5881 24.0972C22.4238 25.122 20.926 25.6874 19.375 25.6875C14.5845 25.6875 9.99026 23.7845 6.60288 20.3971C3.21551 17.0097 1.3125 12.4155 1.3125 7.625C1.31264 6.07411 1.87805 4.57643 2.90286 3.41237C3.92767 2.24831 5.34162 1.49767 6.88 1.301C7.10793 1.27351 7.33862 1.32082 7.53734 1.4358C7.73606 1.55077 7.89205 1.7272 7.98181 1.9385L10.6508 8.16475C10.7195 8.32563 10.7473 8.50096 10.7319 8.67518C10.7166 8.84941 10.6584 9.01715 10.5626 9.1635L8.35263 12.5401C8.25232 12.6922 8.19314 12.8676 8.18085 13.0494C8.16856 13.2311 8.20358 13.413 8.2825 13.5771V13.5771Z" stroke="#1A1A1A" stroke-width="1.5" stroke-linecap="round" stroke-linejoin="round"/>
</svg>
